<svg width="38" height="38" viewBox="0 0 38 38" fill="none" xmlns="http://www.w3.org/2000/svg">
<path d="M13.4583 12.7775C13.7117 12.711 13.9729 12.6651 14.2468 12.6651L23.7358 12.6572H23.7389C24.0239 12.6572 24.2978 12.7078 24.5654 12.7791L20.577 16.7675C19.7426 17.6019 18.2843 17.6019 17.4483 16.7675L13.4567 12.7759L13.4583 12.7775ZM22.8158 19.0079C21.8009 20.0244 20.4503 20.5833 19.0143 20.5833C17.5782 20.5833 16.226 20.0228 15.2111 19.0079L11.2084 15.0037C11.1356 15.2697 11.0849 15.5436 11.0849 15.8317V20.5802C11.0849 21.4273 11.4143 22.2221 12.0128 22.8206C12.6113 23.4191 13.4061 23.7468 14.2516 23.7468L23.7405 23.7421C25.4869 23.7421 26.9056 22.3203 26.9056 20.5754V15.8254C26.9056 15.5531 26.8597 15.2887 26.7932 15.0322L22.8158 19.0079ZM38 19C38 29.4769 29.4769 38 19 38C8.52308 38 0 29.4769 0 19C0 8.52308 8.52308 0 19 0C29.4769 0 38 8.52308 38 19ZM30.0723 15.8238C30.0723 14.1313 29.412 12.54 28.215 11.343C27.018 10.1492 25.4283 9.4905 23.7389 9.4905H23.7326L14.2437 9.49842C10.7556 9.50158 7.91667 12.3421 7.91667 15.8317V20.5802C7.91667 22.2728 8.57533 23.864 9.77233 25.0594C10.9693 26.2548 12.559 26.9135 14.25 26.9135H14.2548L23.7437 26.9088C27.2333 26.9072 30.0723 24.0651 30.0723 20.5754V15.8238Z" fill="white"/>
</svg>
