<svg width="38" height="38" viewBox="0 0 38 38" fill="none" xmlns="http://www.w3.org/2000/svg">
<path d="M19 0C29.4938 0 38 8.50622 38 19C38 29.4938 29.4938 38 19 38C8.50622 38 0 29.4938 0 19C0 8.50622 8.50622 0 19 0ZM25.5542 26.7446C25.9036 25.6723 27.5409 14.986 27.7433 12.8803C27.8044 12.2426 27.6029 11.8188 27.208 11.6297C26.7305 11.4 26.0234 11.5148 25.2031 11.8106C24.078 12.2162 9.69413 18.3234 8.86309 18.677C8.075 19.0116 7.32987 19.3767 7.32987 19.9054C7.32987 20.2771 7.55043 20.4861 8.15843 20.7034C8.79122 20.9289 10.3847 21.4122 11.3257 21.6716C12.2319 21.9219 13.2637 21.7046 13.8419 21.3453C14.4549 20.9644 21.5287 16.231 22.0367 15.8163C22.5439 15.4016 22.9487 15.9327 22.534 16.3483C22.1193 16.763 17.2636 21.4758 16.6233 22.1284C15.846 22.9206 16.3978 23.7417 16.9191 24.0705C17.5147 24.4456 21.798 27.3187 22.4431 27.7797C23.0883 28.2406 23.7426 28.4496 24.3415 28.4496C24.9404 28.4496 25.256 27.6607 25.5542 26.7446Z" fill="white"/>
</svg>
